<svg xmlns="http://www.w3.org/2000/svg" xmlns:xlink="http://www.w3.org/1999/xlink" width="1587" zoomAndPan="magnify" viewBox="0 0 1190.25 1683.749949" height="2245" preserveAspectRatio="xMidYMid meet" version="1.0"><defs><g/><clipPath id="18d5802f21"><path d="M 0 439 L 1189.5 439 L 1189.5 1288 L 0 1288 Z M 0 439 " clip-rule="nonzero"/></clipPath><clipPath id="bbd0f5f7a8"><path d="M 244 236.636719 L 314 236.636719 L 314 285 L 244 285 Z M 244 236.636719 " clip-rule="nonzero"/></clipPath><clipPath id="b370bcabf7"><path d="M 74 236.636719 L 908 236.636719 L 908 561.097656 L 74 561.097656 Z M 74 236.636719 " clip-rule="nonzero"/></clipPath><clipPath id="ececdb5e57"><path d="M 0 538 L 495 538 L 495 848.914062 L 0 848.914062 Z M 0 538 " clip-rule="nonzero"/></clipPath><clipPath id="3f5106d0b9"><path d="M 371 68 L 494.808594 68 L 494.808594 232 L 371 232 Z M 371 68 " clip-rule="nonzero"/></clipPath><clipPath id="cc9b48758d"><rect x="0" width="495" y="0" height="311"/></clipPath><clipPath id="7ed55bf21d"><path d="M 588 0.0898438 L 1189.5 0.0898438 L 1189.5 256 L 588 256 Z M 588 0.0898438 " clip-rule="nonzero"/></clipPath><clipPath id="2c7f49b2a4"><rect x="0" width="602" y="0" height="256"/></clipPath><clipPath id="0ca1f49435"><rect x="0" width="1190" y="0" height="849"/></clipPath></defs><g clip-path="url(#18d5802f21)"><g transform="matrix(1, 0, 0, 1, 0, 439)"><g clip-path="url(#0ca1f49435)"><g clip-path="url(#bbd0f5f7a8)"><path fill="#af0006" d="M 291.167969 236.695312 L 266.402344 236.695312 C 254.15625 236.695312 244.21875 246.628906 244.21875 258.867188 L 244.21875 262.417969 C 244.21875 274.65625 254.15625 284.589844 266.402344 284.589844 L 291.167969 284.589844 C 303.410156 284.589844 313.351562 274.65625 313.351562 262.417969 L 313.351562 258.867188 C 313.320312 246.597656 303.410156 236.695312 291.167969 236.695312 Z M 291.167969 236.695312 " fill-opacity="1" fill-rule="nonzero"/></g><g clip-path="url(#b370bcabf7)"><path fill="#af0006" d="M 907.925781 262.386719 L 907.925781 258.835938 C 907.925781 246.597656 897.988281 236.664062 885.742188 236.664062 L 397.808594 236.664062 C 385.566406 236.664062 375.628906 246.597656 375.628906 258.835938 L 375.628906 262.386719 C 375.628906 274.625 385.566406 284.558594 397.808594 284.558594 L 414.101562 284.558594 C 426.347656 284.558594 436.285156 294.488281 436.285156 306.726562 C 436.285156 318.964844 426.347656 328.898438 414.101562 328.898438 L 397.683594 328.898438 C 385.441406 328.898438 375.503906 338.832031 375.503906 351.070312 L 375.503906 354.617188 C 375.503906 366.855469 385.441406 376.789062 397.683594 376.789062 L 503.046875 376.789062 C 515.289062 376.789062 525.230469 386.722656 525.230469 398.960938 C 525.230469 411.195312 515.289062 421.128906 503.046875 421.128906 L 207.800781 421.128906 C 195.554688 421.128906 185.617188 431.0625 185.617188 443.300781 L 185.617188 446.851562 C 185.617188 459.089844 195.554688 469.019531 207.800781 469.019531 L 271.945312 469.019531 C 284.191406 469.019531 294.128906 478.953125 294.128906 491.191406 C 294.128906 503.429688 284.191406 513.363281 271.945312 513.363281 L 96.363281 513.363281 C 84.117188 513.363281 74.179688 523.296875 74.179688 535.535156 L 74.179688 539.082031 C 74.179688 551.320312 84.117188 561.253906 96.363281 561.253906 L 406.84375 561.253906 C 419.085938 561.253906 429.023438 551.320312 429.023438 539.082031 L 429.023438 535.535156 C 429.023438 523.296875 419.085938 513.363281 406.84375 513.363281 L 371.078125 513.363281 C 358.835938 513.363281 348.898438 503.429688 348.898438 491.191406 C 348.898438 478.953125 358.835938 469.019531 371.078125 469.019531 L 612.773438 469.019531 C 625.015625 469.019531 634.953125 459.089844 634.953125 446.851562 L 634.953125 443.300781 C 634.953125 431.0625 625.015625 421.128906 612.773438 421.128906 L 598.96875 421.128906 C 586.726562 421.128906 576.789062 411.195312 576.789062 398.960938 C 576.789062 386.722656 586.726562 376.789062 598.96875 376.789062 L 666.730469 376.789062 C 678.972656 376.789062 688.914062 366.855469 688.914062 354.617188 L 688.914062 351.070312 C 688.914062 338.832031 678.972656 328.898438 666.730469 328.898438 L 511.894531 328.898438 C 499.652344 328.898438 489.714844 318.964844 489.714844 306.726562 C 489.714844 294.488281 499.652344 284.558594 511.894531 284.558594 L 885.773438 284.558594 C 897.988281 284.527344 907.925781 274.625 907.925781 262.386719 Z M 907.925781 262.386719 " fill-opacity="1" fill-rule="nonzero"/></g><g clip-path="url(#ececdb5e57)"><g transform="matrix(1, 0, 0, 1, 0, 538)"><g clip-path="url(#cc9b48758d)"><g fill="#000000" fill-opacity="0.4"><g transform="translate(9.812187, 231.008074)"><g><path d="M 91.6875 -127.875 L 91.6875 0 L 45.0625 0 L 45.0625 -127.875 L 4.4375 -127.875 L 10.21875 -162.734375 L 126.546875 -162.734375 L 132.328125 -127.875 Z M 91.6875 -127.875 "/></g></g></g><g fill="#000000" fill-opacity="0.4"><g transform="translate(146.567924, 231.008074)"><g><path d="M 138.984375 0 L 92.359375 0 L 69.265625 -69.71875 L 57.5 -69.71875 L 57.5 0 L 11.09375 0 L 11.09375 -162.734375 L 69.265625 -162.734375 C 78.003906 -162.734375 86.296875 -161.992188 94.140625 -160.515625 C 101.828125 -158.890625 108.5625 -156.300781 114.34375 -152.75 C 120.113281 -149.050781 124.703125 -144.238281 128.109375 -138.3125 C 131.503906 -132.394531 133.203125 -125.070312 133.203125 -116.34375 C 133.203125 -106.71875 131.207031 -98.867188 127.21875 -92.796875 C 123.21875 -86.585938 117.8125 -81.707031 111 -78.15625 Z M 57.5 -93.03125 C 62.382812 -93.03125 66.75 -93.691406 70.59375 -95.015625 C 74.300781 -96.347656 77.410156 -98.125 79.921875 -100.34375 C 82.296875 -102.414062 84.144531 -104.859375 85.46875 -107.671875 C 86.65625 -110.335938 87.25 -113.148438 87.25 -116.109375 C 87.25 -119.066406 86.65625 -121.953125 85.46875 -124.765625 C 84.144531 -127.578125 82.296875 -130.097656 79.921875 -132.328125 C 77.410156 -134.390625 74.300781 -136.085938 70.59375 -137.421875 C 66.75 -138.753906 62.382812 -139.421875 57.5 -139.421875 Z M 57.5 -93.03125 "/></g></g></g><g fill="#000000" fill-opacity="0.4"><g transform="translate(292.203906, 231.008074)"><g><path d="M 11.09375 -162.734375 L 57.5 -162.734375 L 57.5 0 L 11.09375 0 Z M 11.09375 -162.734375 "/></g></g></g><g clip-path="url(#3f5106d0b9)"><g fill="#000000" fill-opacity="0.4"><g transform="translate(360.80378, 231.008074)"><g><path d="M 69.265625 -162.734375 C 78.003906 -162.734375 86.296875 -161.992188 94.140625 -160.515625 C 101.828125 -158.890625 108.5625 -156.300781 114.34375 -152.75 C 120.113281 -149.050781 124.703125 -144.238281 128.109375 -138.3125 C 131.503906 -132.394531 133.203125 -125.070312 133.203125 -116.34375 C 133.203125 -107.601562 131.503906 -100.273438 128.109375 -94.359375 C 124.703125 -88.285156 120.113281 -83.472656 114.34375 -79.921875 C 108.5625 -76.222656 101.828125 -73.632812 94.140625 -72.15625 C 86.296875 -70.53125 78.003906 -69.71875 69.265625 -69.71875 L 57.5 -69.71875 L 57.5 0 L 11.09375 0 L 11.09375 -162.734375 Z M 57.5 -93.03125 C 62.382812 -93.03125 66.75 -93.691406 70.59375 -95.015625 C 74.300781 -96.347656 77.410156 -98.125 79.921875 -100.34375 C 82.296875 -102.414062 84.144531 -104.859375 85.46875 -107.671875 C 86.65625 -110.335938 87.25 -113.148438 87.25 -116.109375 C 87.25 -119.066406 86.65625 -121.953125 85.46875 -124.765625 C 84.144531 -127.578125 82.296875 -130.097656 79.921875 -132.328125 C 77.410156 -134.390625 74.300781 -136.085938 70.59375 -137.421875 C 66.75 -138.753906 62.382812 -139.421875 57.5 -139.421875 Z M 57.5 -93.03125 "/></g></g></g></g><g fill="#00bf63" fill-opacity="1"><g transform="translate(0.00000000000008519, 221.195879)"><g><path d="M 91.6875 -127.875 L 91.6875 0 L 45.0625 0 L 45.0625 -127.875 L 4.4375 -127.875 L 10.21875 -162.734375 L 126.546875 -162.734375 L 132.328125 -127.875 Z M 91.6875 -127.875 "/></g></g></g><g fill="#00bf63" fill-opacity="1"><g transform="translate(136.755737, 221.195879)"><g><path d="M 138.984375 0 L 92.359375 0 L 69.265625 -69.71875 L 57.5 -69.71875 L 57.5 0 L 11.09375 0 L 11.09375 -162.734375 L 69.265625 -162.734375 C 78.003906 -162.734375 86.296875 -161.992188 94.140625 -160.515625 C 101.828125 -158.890625 108.5625 -156.300781 114.34375 -152.75 C 120.113281 -149.050781 124.703125 -144.238281 128.109375 -138.3125 C 131.503906 -132.394531 133.203125 -125.070312 133.203125 -116.34375 C 133.203125 -106.71875 131.207031 -98.867188 127.21875 -92.796875 C 123.21875 -86.585938 117.8125 -81.707031 111 -78.15625 Z M 57.5 -93.03125 C 62.382812 -93.03125 66.75 -93.691406 70.59375 -95.015625 C 74.300781 -96.347656 77.410156 -98.125 79.921875 -100.34375 C 82.296875 -102.414062 84.144531 -104.859375 85.46875 -107.671875 C 86.65625 -110.335938 87.25 -113.148438 87.25 -116.109375 C 87.25 -119.066406 86.65625 -121.953125 85.46875 -124.765625 C 84.144531 -127.578125 82.296875 -130.097656 79.921875 -132.328125 C 77.410156 -134.390625 74.300781 -136.085938 70.59375 -137.421875 C 66.75 -138.753906 62.382812 -139.421875 57.5 -139.421875 Z M 57.5 -93.03125 "/></g></g></g><g fill="#00bf63" fill-opacity="1"><g transform="translate(282.391719, 221.195879)"><g><path d="M 11.09375 -162.734375 L 57.5 -162.734375 L 57.5 0 L 11.09375 0 Z M 11.09375 -162.734375 "/></g></g></g><g fill="#00bf63" fill-opacity="1"><g transform="translate(350.991593, 221.195879)"><g><path d="M 69.265625 -162.734375 C 78.003906 -162.734375 86.296875 -161.992188 94.140625 -160.515625 C 101.828125 -158.890625 108.5625 -156.300781 114.34375 -152.75 C 120.113281 -149.050781 124.703125 -144.238281 128.109375 -138.3125 C 131.503906 -132.394531 133.203125 -125.070312 133.203125 -116.34375 C 133.203125 -107.601562 131.503906 -100.273438 128.109375 -94.359375 C 124.703125 -88.285156 120.113281 -83.472656 114.34375 -79.921875 C 108.5625 -76.222656 101.828125 -73.632812 94.140625 -72.15625 C 86.296875 -70.53125 78.003906 -69.71875 69.265625 -69.71875 L 57.5 -69.71875 L 57.5 0 L 11.09375 0 L 11.09375 -162.734375 Z M 57.5 -93.03125 C 62.382812 -93.03125 66.75 -93.691406 70.59375 -95.015625 C 74.300781 -96.347656 77.410156 -98.125 79.921875 -100.34375 C 82.296875 -102.414062 84.144531 -104.859375 85.46875 -107.671875 C 86.65625 -110.335938 87.25 -113.148438 87.25 -116.109375 C 87.25 -119.066406 86.65625 -121.953125 85.46875 -124.765625 C 84.144531 -127.578125 82.296875 -130.097656 79.921875 -132.328125 C 77.410156 -134.390625 74.300781 -136.085938 70.59375 -137.421875 C 66.75 -138.753906 62.382812 -139.421875 57.5 -139.421875 Z M 57.5 -93.03125 "/></g></g></g></g></g></g><g clip-path="url(#7ed55bf21d)"><g transform="matrix(1, 0, 0, 1, 588, 0.000000000000113687)"><g clip-path="url(#2c7f49b2a4)"><g fill="#000000" fill-opacity="0.4"><g transform="translate(8.527763, 189.037737)"><g><path d="M 72.109375 -19.125 C 75.628906 -19.125 78.90625 -19.851562 81.9375 -21.3125 C 84.851562 -22.757812 87.34375 -24.394531 89.40625 -26.21875 C 91.832031 -28.28125 94.019531 -30.648438 95.96875 -33.328125 L 110.34375 -19.125 C 107.3125 -15.476562 103.734375 -12.257812 99.609375 -9.46875 C 96.085938 -7.039062 91.65625 -4.851562 86.3125 -2.90625 C 80.851562 -0.96875 74.539062 0 67.375 0 C 57.050781 0 48.007812 -1.941406 40.25 -5.828125 C 32.476562 -9.585938 26.039062 -14.566406 20.9375 -20.765625 C 15.71875 -26.953125 11.832031 -34.050781 9.28125 -42.0625 C 6.738281 -49.957031 5.46875 -58.09375 5.46875 -66.46875 C 5.46875 -74.84375 6.800781 -83.035156 9.46875 -91.046875 C 12.019531 -99.054688 15.90625 -106.21875 21.125 -112.53125 C 26.21875 -118.84375 32.648438 -123.941406 40.421875 -127.828125 C 48.066406 -131.585938 57.050781 -133.46875 67.375 -133.46875 C 74.539062 -133.46875 80.851562 -132.5 86.3125 -130.5625 C 91.65625 -128.5 96.085938 -126.253906 99.609375 -123.828125 C 103.734375 -121.035156 107.3125 -117.878906 110.34375 -114.359375 L 95.96875 -100.15625 C 94.019531 -102.695312 91.832031 -105.0625 89.40625 -107.25 C 87.34375 -108.945312 84.851562 -110.585938 81.9375 -112.171875 C 78.90625 -113.628906 75.628906 -114.359375 72.109375 -114.359375 C 67.367188 -114.359375 63.242188 -113.019531 59.734375 -110.34375 C 56.085938 -107.550781 53.109375 -103.910156 50.796875 -99.421875 C 48.367188 -94.929688 46.550781 -89.894531 45.34375 -84.3125 C 44.125 -78.601562 43.515625 -72.773438 43.515625 -66.828125 C 43.515625 -60.878906 44.125 -55.050781 45.34375 -49.34375 C 46.550781 -43.632812 48.367188 -38.535156 50.796875 -34.046875 C 53.109375 -29.554688 56.085938 -25.976562 59.734375 -23.3125 C 63.242188 -20.519531 67.367188 -19.125 72.109375 -19.125 Z M 72.109375 -19.125 "/></g></g></g><g fill="#000000" fill-opacity="0.4"><g transform="translate(124.336452, 189.037737)"><g><path d="M 90.140625 0 L 9.109375 0 L 9.109375 -133.46875 L 47.15625 -133.46875 L 47.15625 -28.59375 L 85.40625 -28.59375 Z M 90.140625 0 "/></g></g></g><g fill="#000000" fill-opacity="0.4"><g transform="translate(209.00739, 189.037737)"><g><path d="M 66.46875 -137.84375 C 76.664062 -137.84375 85.585938 -135.84375 93.234375 -131.84375 C 100.753906 -127.707031 107.066406 -122.300781 112.171875 -115.625 C 117.265625 -108.945312 121.085938 -101.363281 123.640625 -92.875 C 126.191406 -84.375 127.46875 -75.691406 127.46875 -66.828125 C 127.46875 -57.847656 126.191406 -49.109375 123.640625 -40.609375 C 121.085938 -32.109375 117.265625 -24.519531 112.171875 -17.84375 C 107.066406 -11.164062 100.753906 -5.828125 93.234375 -1.828125 C 85.585938 2.304688 76.664062 4.375 66.46875 4.375 C 56.269531 4.375 47.40625 2.304688 39.875 -1.828125 C 32.226562 -5.828125 25.859375 -11.164062 20.765625 -17.84375 C 15.660156 -24.519531 11.832031 -32.109375 9.28125 -40.609375 C 6.738281 -49.109375 5.46875 -57.847656 5.46875 -66.828125 C 5.46875 -75.691406 6.738281 -84.375 9.28125 -92.875 C 11.832031 -101.363281 15.660156 -108.945312 20.765625 -115.625 C 25.859375 -122.300781 32.226562 -127.707031 39.875 -131.84375 C 47.40625 -135.84375 56.269531 -137.84375 66.46875 -137.84375 Z M 66.46875 -16.03125 C 69.007812 -16.03125 71.5 -17 73.9375 -18.9375 C 76.363281 -20.875 78.546875 -23.910156 80.484375 -28.046875 C 82.429688 -32.171875 84.007812 -37.453125 85.21875 -43.890625 C 86.3125 -50.203125 86.859375 -57.847656 86.859375 -66.828125 C 86.859375 -75.691406 86.3125 -83.335938 85.21875 -89.765625 C 84.007812 -96.203125 82.429688 -101.484375 80.484375 -105.609375 C 78.546875 -109.742188 76.363281 -112.78125 73.9375 -114.71875 C 71.5 -116.65625 69.007812 -117.625 66.46875 -117.625 C 63.914062 -117.625 61.425781 -116.65625 59 -114.71875 C 56.570312 -112.78125 54.382812 -109.742188 52.4375 -105.609375 C 50.5 -101.484375 48.984375 -96.203125 47.890625 -89.765625 C 46.671875 -83.335938 46.0625 -75.691406 46.0625 -66.828125 C 46.0625 -57.847656 46.671875 -50.203125 47.890625 -43.890625 C 48.984375 -37.453125 50.5 -32.171875 52.4375 -28.046875 C 54.382812 -23.910156 56.570312 -20.875 59 -18.9375 C 61.425781 -17 63.914062 -16.03125 66.46875 -16.03125 Z M 66.46875 -16.03125 "/></g></g></g><g fill="#000000" fill-opacity="0.4"><g transform="translate(341.932459, 189.037737)"><g><path d="M 119.8125 -133.46875 L 119.8125 -66.640625 C 119.8125 -58.265625 118.84375 -50.132812 116.90625 -42.25 C 114.957031 -34.238281 111.800781 -27.132812 107.4375 -20.9375 C 102.945312 -14.625 97.054688 -9.585938 89.765625 -5.828125 C 82.367188 -1.941406 73.328125 0 62.640625 0 C 51.953125 0 42.96875 -1.941406 35.6875 -5.828125 C 28.40625 -9.585938 22.519531 -14.625 18.03125 -20.9375 C 13.539062 -27.132812 10.320312 -34.238281 8.375 -42.25 C 6.4375 -50.132812 5.46875 -58.265625 5.46875 -66.640625 L 5.46875 -133.46875 L 43.515625 -133.46875 L 43.515625 -66.640625 C 43.515625 -58.265625 43.878906 -51.101562 44.609375 -45.15625 C 45.222656 -39.207031 46.316406 -34.289062 47.890625 -30.40625 C 49.347656 -26.519531 51.289062 -23.664062 53.71875 -21.84375 C 56.144531 -20.03125 59.117188 -19.125 62.640625 -19.125 C 69.804688 -19.125 74.785156 -22.882812 77.578125 -30.40625 C 80.367188 -37.9375 81.765625 -50.015625 81.765625 -66.640625 L 81.765625 -133.46875 Z M 119.8125 -133.46875 "/></g></g></g><g fill="#000000" fill-opacity="0.4"><g transform="translate(467.209757, 189.037737)"><g><path d="M 61.546875 -133.46875 C 72.234375 -133.46875 81.519531 -131.34375 89.40625 -127.09375 C 97.175781 -122.851562 103.609375 -117.453125 108.703125 -110.890625 C 113.679688 -104.335938 117.382812 -97.113281 119.8125 -89.21875 C 122.238281 -81.332031 123.453125 -73.804688 123.453125 -66.640625 C 123.453125 -58.265625 122.054688 -50.132812 119.265625 -42.25 C 116.359375 -34.238281 112.234375 -27.132812 106.890625 -20.9375 C 101.421875 -14.625 94.863281 -9.585938 87.21875 -5.828125 C 79.570312 -1.941406 71.015625 0 61.546875 0 L 9.109375 0 L 9.109375 -133.46875 Z M 56.8125 -19.125 C 61.550781 -19.125 65.738281 -20.519531 69.375 -23.3125 C 72.894531 -25.976562 75.867188 -29.554688 78.296875 -34.046875 C 80.609375 -38.421875 82.367188 -43.460938 83.578125 -49.171875 C 84.796875 -54.867188 85.40625 -60.691406 85.40625 -66.640625 C 85.40625 -72.585938 84.796875 -78.414062 83.578125 -84.125 C 82.367188 -89.832031 80.609375 -94.929688 78.296875 -99.421875 C 75.867188 -103.910156 72.894531 -107.550781 69.375 -110.34375 C 65.738281 -113.019531 61.550781 -114.359375 56.8125 -114.359375 L 47.15625 -114.359375 L 47.15625 -19.125 Z M 56.8125 -19.125 "/></g></g></g><g fill="#000000" fill-opacity="0.4"><g transform="translate(596.134166, 189.037737)"><g/></g></g><g fill="#000000" fill-opacity="1"><g transform="translate(0.480061, 180.990006)"><g><path d="M 72.109375 -19.125 C 75.628906 -19.125 78.90625 -19.851562 81.9375 -21.3125 C 84.851562 -22.757812 87.34375 -24.394531 89.40625 -26.21875 C 91.832031 -28.28125 94.019531 -30.648438 95.96875 -33.328125 L 110.34375 -19.125 C 107.3125 -15.476562 103.734375 -12.257812 99.609375 -9.46875 C 96.085938 -7.039062 91.65625 -4.851562 86.3125 -2.90625 C 80.851562 -0.96875 74.539062 0 67.375 0 C 57.050781 0 48.007812 -1.941406 40.25 -5.828125 C 32.476562 -9.585938 26.039062 -14.566406 20.9375 -20.765625 C 15.71875 -26.953125 11.832031 -34.050781 9.28125 -42.0625 C 6.738281 -49.957031 5.46875 -58.09375 5.46875 -66.46875 C 5.46875 -74.84375 6.800781 -83.035156 9.46875 -91.046875 C 12.019531 -99.054688 15.90625 -106.21875 21.125 -112.53125 C 26.21875 -118.84375 32.648438 -123.941406 40.421875 -127.828125 C 48.066406 -131.585938 57.050781 -133.46875 67.375 -133.46875 C 74.539062 -133.46875 80.851562 -132.5 86.3125 -130.5625 C 91.65625 -128.5 96.085938 -126.253906 99.609375 -123.828125 C 103.734375 -121.035156 107.3125 -117.878906 110.34375 -114.359375 L 95.96875 -100.15625 C 94.019531 -102.695312 91.832031 -105.0625 89.40625 -107.25 C 87.34375 -108.945312 84.851562 -110.585938 81.9375 -112.171875 C 78.90625 -113.628906 75.628906 -114.359375 72.109375 -114.359375 C 67.367188 -114.359375 63.242188 -113.019531 59.734375 -110.34375 C 56.085938 -107.550781 53.109375 -103.910156 50.796875 -99.421875 C 48.367188 -94.929688 46.550781 -89.894531 45.34375 -84.3125 C 44.125 -78.601562 43.515625 -72.773438 43.515625 -66.828125 C 43.515625 -60.878906 44.125 -55.050781 45.34375 -49.34375 C 46.550781 -43.632812 48.367188 -38.535156 50.796875 -34.046875 C 53.109375 -29.554688 56.085938 -25.976562 59.734375 -23.3125 C 63.242188 -20.519531 67.367188 -19.125 72.109375 -19.125 Z M 72.109375 -19.125 "/></g></g></g><g fill="#000000" fill-opacity="1"><g transform="translate(116.288749, 180.990006)"><g><path d="M 90.140625 0 L 9.109375 0 L 9.109375 -133.46875 L 47.15625 -133.46875 L 47.15625 -28.59375 L 85.40625 -28.59375 Z M 90.140625 0 "/></g></g></g><g fill="#000000" fill-opacity="1"><g transform="translate(200.959688, 180.990006)"><g><path d="M 66.46875 -137.84375 C 76.664062 -137.84375 85.585938 -135.84375 93.234375 -131.84375 C 100.753906 -127.707031 107.066406 -122.300781 112.171875 -115.625 C 117.265625 -108.945312 121.085938 -101.363281 123.640625 -92.875 C 126.191406 -84.375 127.46875 -75.691406 127.46875 -66.828125 C 127.46875 -57.847656 126.191406 -49.109375 123.640625 -40.609375 C 121.085938 -32.109375 117.265625 -24.519531 112.171875 -17.84375 C 107.066406 -11.164062 100.753906 -5.828125 93.234375 -1.828125 C 85.585938 2.304688 76.664062 4.375 66.46875 4.375 C 56.269531 4.375 47.40625 2.304688 39.875 -1.828125 C 32.226562 -5.828125 25.859375 -11.164062 20.765625 -17.84375 C 15.660156 -24.519531 11.832031 -32.109375 9.28125 -40.609375 C 6.738281 -49.109375 5.46875 -57.847656 5.46875 -66.828125 C 5.46875 -75.691406 6.738281 -84.375 9.28125 -92.875 C 11.832031 -101.363281 15.660156 -108.945312 20.765625 -115.625 C 25.859375 -122.300781 32.226562 -127.707031 39.875 -131.84375 C 47.40625 -135.84375 56.269531 -137.84375 66.46875 -137.84375 Z M 66.46875 -16.03125 C 69.007812 -16.03125 71.5 -17 73.9375 -18.9375 C 76.363281 -20.875 78.546875 -23.910156 80.484375 -28.046875 C 82.429688 -32.171875 84.007812 -37.453125 85.21875 -43.890625 C 86.3125 -50.203125 86.859375 -57.847656 86.859375 -66.828125 C 86.859375 -75.691406 86.3125 -83.335938 85.21875 -89.765625 C 84.007812 -96.203125 82.429688 -101.484375 80.484375 -105.609375 C 78.546875 -109.742188 76.363281 -112.78125 73.9375 -114.71875 C 71.5 -116.65625 69.007812 -117.625 66.46875 -117.625 C 63.914062 -117.625 61.425781 -116.65625 59 -114.71875 C 56.570312 -112.78125 54.382812 -109.742188 52.4375 -105.609375 C 50.5 -101.484375 48.984375 -96.203125 47.890625 -89.765625 C 46.671875 -83.335938 46.0625 -75.691406 46.0625 -66.828125 C 46.0625 -57.847656 46.671875 -50.203125 47.890625 -43.890625 C 48.984375 -37.453125 50.5 -32.171875 52.4375 -28.046875 C 54.382812 -23.910156 56.570312 -20.875 59 -18.9375 C 61.425781 -17 63.914062 -16.03125 66.46875 -16.03125 Z M 66.46875 -16.03125 "/></g></g></g><g fill="#000000" fill-opacity="1"><g transform="translate(333.884757, 180.990006)"><g><path d="M 119.8125 -133.46875 L 119.8125 -66.640625 C 119.8125 -58.265625 118.84375 -50.132812 116.90625 -42.25 C 114.957031 -34.238281 111.800781 -27.132812 107.4375 -20.9375 C 102.945312 -14.625 97.054688 -9.585938 89.765625 -5.828125 C 82.367188 -1.941406 73.328125 0 62.640625 0 C 51.953125 0 42.96875 -1.941406 35.6875 -5.828125 C 28.40625 -9.585938 22.519531 -14.625 18.03125 -20.9375 C 13.539062 -27.132812 10.320312 -34.238281 8.375 -42.25 C 6.4375 -50.132812 5.46875 -58.265625 5.46875 -66.640625 L 5.46875 -133.46875 L 43.515625 -133.46875 L 43.515625 -66.640625 C 43.515625 -58.265625 43.878906 -51.101562 44.609375 -45.15625 C 45.222656 -39.207031 46.316406 -34.289062 47.890625 -30.40625 C 49.347656 -26.519531 51.289062 -23.664062 53.71875 -21.84375 C 56.144531 -20.03125 59.117188 -19.125 62.640625 -19.125 C 69.804688 -19.125 74.785156 -22.882812 77.578125 -30.40625 C 80.367188 -37.9375 81.765625 -50.015625 81.765625 -66.640625 L 81.765625 -133.46875 Z M 119.8125 -133.46875 "/></g></g></g><g fill="#000000" fill-opacity="1"><g transform="translate(459.162055, 180.990006)"><g><path d="M 61.546875 -133.46875 C 72.234375 -133.46875 81.519531 -131.34375 89.40625 -127.09375 C 97.175781 -122.851562 103.609375 -117.453125 108.703125 -110.890625 C 113.679688 -104.335938 117.382812 -97.113281 119.8125 -89.21875 C 122.238281 -81.332031 123.453125 -73.804688 123.453125 -66.640625 C 123.453125 -58.265625 122.054688 -50.132812 119.265625 -42.25 C 116.359375 -34.238281 112.234375 -27.132812 106.890625 -20.9375 C 101.421875 -14.625 94.863281 -9.585938 87.21875 -5.828125 C 79.570312 -1.941406 71.015625 0 61.546875 0 L 9.109375 0 L 9.109375 -133.46875 Z M 56.8125 -19.125 C 61.550781 -19.125 65.738281 -20.519531 69.375 -23.3125 C 72.894531 -25.976562 75.867188 -29.554688 78.296875 -34.046875 C 80.609375 -38.421875 82.367188 -43.460938 83.578125 -49.171875 C 84.796875 -54.867188 85.40625 -60.691406 85.40625 -66.640625 C 85.40625 -72.585938 84.796875 -78.414062 83.578125 -84.125 C 82.367188 -89.832031 80.609375 -94.929688 78.296875 -99.421875 C 75.867188 -103.910156 72.894531 -107.550781 69.375 -110.34375 C 65.738281 -113.019531 61.550781 -114.359375 56.8125 -114.359375 L 47.15625 -114.359375 L 47.15625 -19.125 Z M 56.8125 -19.125 "/></g></g></g><g fill="#000000" fill-opacity="1"><g transform="translate(588.086464, 180.990006)"><g/></g></g></g></g></g></g></g></g></svg>